<?xml version="1.0" encoding="utf-8" ?><!-- created by svgstack.com | Attribution is required. --><svg xmlns="http://www.w3.org/2000/svg" xmlns:xlink="http://www.w3.org/1999/xlink" width="1024" height="1024"><path fill="#5B4F88" transform="scale(2 2)" d="M248.501 58.2399C299.764 55.8707 344.283 91.1216 350.276 142.667C356.639 197.393 316.118 241.209 263.125 247.254C215.218 249.624 171.237 217.341 162.928 169.42C154.511 120.877 184.083 74.183 231.691 61.3844C237.246 59.8909 242.849 59.2033 248.501 58.2399ZM250.961 85.2454C210.648 90.8026 183.821 122.78 189.593 163.779C194.433 198.161 227.927 222.6 261.813 220.254C266.018 219.403 270.199 218.772 274.335 217.581C308.428 207.758 329.083 173.775 321.96 138.975C315.353 106.696 284.044 82.381 250.961 85.2454Z"/><path fill="#5B4F88" transform="scale(2 2)" d="M248.501 252.259C338.234 249.001 417.597 319.486 418.731 410.954C418.952 428.786 402.776 443.769 386.159 447.243C380.658 448.393 374.631 447.981 369.024 447.978L263.125 447.968L145.289 447.979C139.5 447.985 133.484 448.353 127.763 447.412C110.498 444.575 95.0578 429.599 93.4044 411.898C92.8595 406.064 93.57 399.833 94.2741 394.022C99.2922 352.607 122.069 313.844 154.464 287.761C183.202 264.622 212.777 255.429 248.501 252.259ZM253.41 279.667C188.811 280.764 133.656 328.439 122.494 391.846C118.228 416.08 120.962 420.706 144.678 420.624L257.938 420.608L369.549 420.62C390.33 420.626 392.502 418.412 390.13 397.658C382.394 329.988 321.559 277.367 253.41 279.667Z"/></svg> 